<svg width="64px" height="64px" viewBox="0 0 1024 1024" class="icon" version="1.1" xmlns="http://www.w3.org/2000/svg" fill="#000000"><g id="SVGRepo_bgCarrier" stroke-width="0"></g><g id="SVGRepo_tracerCarrier" stroke-linecap="round" stroke-linejoin="round"></g><g id="SVGRepo_iconCarrier"><path d="M771.6 845.3c0 31.4-25.5 56.9-56.9 56.9H335.1c-31.4 0-56.9-25.5-56.9-56.9V181.2c0-31.4 25.5-56.9 56.9-56.9h379.5c31.4 0 56.9 25.5 56.9 56.9v664.1z" fill="#d095a4"></path><path d="M354.1 200.2h341.6v303.6H354.1z" fill="#EDEDED"></path><path d="M714.6 105.3H335.1c-41.9 0-75.9 34-75.9 75.9v664.1c0 41.9 34.1 75.9 75.9 75.9h379.5c41.9 0 75.9-34.1 75.9-75.9V181.2c0-41.9-34-75.9-75.9-75.9z m38 740c0 20.9-17 38-38 38H335.1c-20.9 0-38-17-38-38V181.2c0-20.9 17-38 38-38h379.5c20.9 0 38 17 38 38v664.1z" fill="#211F1E"></path><path d="M695.7 181.2H354.1c-10.5 0-19 8.5-19 19v303.6c0 10.5 8.5 19 19 19h341.6c10.5 0 19-8.5 19-19V200.2c-0.1-10.5-8.6-19-19-19z m-19 303.6H373.1V219.2h303.6v265.6zM482.2 627.2c0-10.5-8.5-19-19-19h-28.5v-28.5c0-10.5-8.5-19-19-19s-19 8.5-19 19v28.5h-28.5c-10.5 0-19 8.5-19 19s8.5 19 19 19h28.5v28.5c0 10.5 8.5 19 19 19s19-8.5 19-19v-28.5h28.5c10.5 0 19-8.5 19-19zM614.4 645.6c-13.1 0-23.7 10.6-23.7 23.7s10.6 23.7 23.7 23.7 23.7-10.6 23.7-23.7c0-13-10.6-23.7-23.7-23.7zM668.3 579.2c-13.1 0-23.7 10.6-23.7 23.7s10.6 23.7 23.7 23.7S692 616 692 602.9c0.1-13.1-10.6-23.7-23.7-23.7zM522.1 773.2c-3.7-3.7-9.7-3.7-13.4 0l-38 38c-3.7 3.7-3.7 9.7 0 13.4 1.9 1.9 4.3 2.8 6.7 2.8 2.4 0 4.9-0.9 6.7-2.8l38-38c3.7-3.7 3.7-9.7 0-13.4zM565.6 773.2l-38 38c-3.7 3.7-3.7 9.7 0 13.4 1.9 1.9 4.3 2.8 6.7 2.8 2.4 0 4.9-0.9 6.7-2.8l38-38a9.476 9.476 0 0 0-13.4-13.4z" fill="#211F1E"></path><path d="M401.2 333c2.4 0 4.9-0.9 6.7-2.8l75.9-75.9a9.476 9.476 0 0 0-13.4-13.4l-75.9 75.9c-3.7 3.7-3.7 9.7 0 13.4 1.8 1.9 4.3 2.8 6.7 2.8z" fill="#211F1E"></path></g></svg>
